<svg width="1080" height="1080" viewBox="0 0 1080 1080" fill="none" xmlns="http://www.w3.org/2000/svg">
  <path d="M 840.94 879.142 C 840.94 968.874 710.725 1041.61 550.096 1041.61 C 389.467 1041.61 259.249 968.874 259.249 879.142 C 259.249 789.412 389.467 716.67 550.096 716.67 C 710.725 716.67 840.94 789.412 840.94 879.142 Z" fill="url(#paint8_linear_5_2)"></path>
  <path fill-rule="evenodd" clip-rule="evenodd" d="M 750.03 983.78 C 800.99 955.312 829.202 917.843 829.202 879.142 C 829.202 840.443 800.99 802.973 750.03 774.505 C 699.454 746.253 628.789 728.408 550.096 728.408 C 471.402 728.408 400.738 746.253 350.16 774.505 C 299.2 802.973 270.989 840.443 270.989 879.142 C 270.989 917.843 299.2 955.312 350.16 983.78 C 400.738 1012.03 471.402 1029.88 550.096 1029.88 C 628.789 1029.88 699.454 1012.03 750.03 983.78 Z M 550.096 1041.61 C 710.725 1041.61 840.94 968.874 840.94 879.142 C 840.94 789.412 710.725 716.67 550.096 716.67 C 389.467 716.67 259.249 789.412 259.249 879.142 C 259.249 968.874 389.467 1041.61 550.096 1041.61 Z" fill="#FF6633"></path>
  <path d="M 739.932 321.114 L 757.093 338.273 L 774.253 321.114 L 757.093 303.952 L 739.932 321.114 Z" fill="#FFE1B7"></path>
  <path fill-rule="evenodd" clip-rule="evenodd" d="M 1030.27 725.683 C 1055.62 701.578 1068.26 676.415 1068.26 651.232 C 1068.26 626.048 1055.62 600.886 1030.27 576.78 C 1004.89 552.647 967.54 530.372 920.416 511.419 C 826.232 473.54 695.313 449.845 550.105 449.845 C 404.896 449.845 273.976 473.54 179.794 511.419 C 132.671 530.372 95.32 552.647 69.942 576.78 C 44.589 600.886 31.95 626.048 31.95 651.232 C 31.95 676.415 44.589 701.578 69.942 725.683 C 95.32 749.817 132.671 772.092 179.794 791.043 C 273.976 828.926 404.896 852.618 550.105 852.618 C 695.313 852.618 826.232 828.926 920.416 791.043 C 967.54 772.092 1004.89 749.817 1030.27 725.683 Z M 550.105 864.356 C 842.757 864.356 1080 768.938 1080 651.232 C 1080 533.525 842.757 438.107 550.105 438.107 C 257.451 438.107 20.212 533.525 20.212 651.232 C 20.212 768.938 257.454 864.356 550.105 864.356 Z" fill="url(#paint9_linear_5_2)"></path>
  <path d="M 994.669 552.901 L 988.375 557.402 L 625.035 598.454 L 475.034 598.05 L 111.753 556.999 L 105.46 552.496 C 105.46 552.496 139.582 893.202 461.063 958.329 C 488.316 964.334 519.088 967.74 551.653 967.74 C 586.816 967.74 619.899 963.815 648.651 956.887 C 962.279 888.122 994.729 552.901 994.729 552.901 L 994.669 552.901 Z" fill="url(#paint10_linear_5_2)"></path>
  <path fill-rule="evenodd" clip-rule="evenodd" d="M 988.375 557.402 L 994.669 552.901 L 994.729 552.901 C 994.729 552.901 994.725 552.924 994.721 552.971 C 994.712 553.055 994.695 553.217 994.669 553.454 C 994.526 554.788 994.099 558.492 993.23 564.188 C 993.017 565.589 992.777 567.111 992.507 568.749 C 981.433 636.009 921.27 897.114 648.651 956.887 C 619.899 963.815 586.816 967.74 551.653 967.74 C 519.088 967.74 488.316 964.334 461.063 958.329 C 181.296 901.652 119.154 636.272 107.737 568.357 C 107.453 566.671 107.202 565.108 106.978 563.671 C 105.859 556.48 105.46 552.496 105.46 552.496 L 111.753 556.999 L 475.034 598.05 L 625.035 598.454 L 988.375 557.402 Z M 119.886 569.731 L 474.358 609.786 L 625.682 610.195 L 980.372 570.12 C 978.874 578.774 976.632 590.155 973.355 603.565 C 965.57 635.42 951.993 678.566 928.851 723.755 C 882.63 814.023 798.572 911.997 646.136 945.421 L 646.019 945.447 L 645.902 945.475 C 618.124 952.168 585.97 956.002 551.653 956.002 C 519.886 956.002 489.963 952.677 463.589 946.865 L 463.491 946.844 L 463.395 946.824 C 307.067 915.155 220.694 816.701 173.112 725.556 C 149.285 679.918 135.263 636.212 127.204 603.907 C 123.781 590.181 121.44 578.546 119.886 569.731 Z" fill="#FF6633"></path>
  <path d="M 997.825 531.71 C 997.825 625.013 797.419 700.647 550.131 700.647 C 302.843 700.647 102.379 625.013 102.379 531.71 C 102.379 438.408 302.843 362.771 550.131 362.771 C 797.419 362.771 997.825 438.408 997.825 531.71 Z" fill="white"></path>
  <path fill-rule="evenodd" clip-rule="evenodd" d="M 140.691 469.455 C 118.611 489.149 107.075 510.197 107.075 531.71 C 107.075 553.221 118.611 574.269 140.691 593.965 C 162.766 613.657 194.976 631.606 235.18 646.773 C 315.553 677.101 426.903 695.952 550.131 695.952 C 673.357 695.952 784.692 677.101 865.052 646.773 C 905.249 631.606 937.45 613.657 959.52 593.965 C 981.593 574.271 993.13 553.221 993.13 531.71 C 993.13 510.197 981.593 489.149 959.52 469.455 C 937.45 449.763 905.249 431.812 865.052 416.645 C 784.692 386.32 673.357 367.465 550.131 367.465 C 426.903 367.465 315.553 386.32 235.18 416.645 C 194.976 431.812 162.766 449.763 140.691 469.455 Z M 231.864 407.857 C 313.544 377.039 426.07 358.075 550.131 358.075 C 674.19 358.075 786.702 377.039 868.368 407.86 C 909.184 423.26 942.54 441.715 965.772 462.447 C 989.002 483.175 1002.52 506.571 1002.52 531.71 C 1002.52 556.849 989.002 580.243 965.772 600.971 C 942.54 621.703 909.184 640.158 868.368 655.56 C 786.702 686.379 674.19 705.343 550.131 705.343 C 426.07 705.343 313.544 686.379 231.864 655.56 C 191.041 640.158 157.679 621.703 134.439 600.973 C 111.204 580.246 97.684 556.849 97.684 531.71 C 97.684 506.569 111.204 483.175 134.439 462.447 C 157.679 441.715 191.041 423.26 231.864 407.857 Z" fill="white"></path>
  <path d="M 997.825 523.231 C 997.825 616.533 797.419 692.17 550.131 692.17 C 302.843 692.17 102.379 616.533 102.379 523.231 C 102.379 429.927 302.843 354.292 550.131 354.292 C 797.419 354.292 997.825 429.927 997.825 523.231 Z" fill="#FFCD89"></path>
  <path d="M 380.1 679.521 C 432.525 687.662 489.917 692.165 550.136 692.165 C 610.355 692.165 667.688 687.662 720.114 679.521 C 677.966 662.141 617.457 651.229 550.136 651.229 C 482.815 651.229 422.248 662.141 380.1 679.521 Z" fill="#DBDADA"></path>
  <path fill-rule="evenodd" clip-rule="evenodd" d="M 69.937 576.839 C 44.587 600.947 31.945 626.11 31.945 651.293 C 31.945 676.476 44.587 701.636 69.937 725.743 C 95.318 749.876 132.666 772.15 179.788 791.103 C 273.974 828.985 404.894 852.679 550.101 852.679 C 695.308 852.679 826.228 828.985 920.414 791.103 C 967.536 772.15 1004.89 749.876 1030.27 725.743 C 1055.61 701.636 1068.26 676.476 1068.26 651.293 C 1068.26 626.11 1055.61 600.947 1030.27 576.839 C 1004.89 552.707 967.536 530.433 920.414 511.48 C 826.228 473.598 695.308 449.904 550.101 449.904 C 404.894 449.904 273.974 473.598 179.788 511.48 C 132.666 530.433 95.318 552.707 69.937 576.839 Z M 550.101 438.165 C 257.449 438.165 20.206 533.585 20.206 651.293 C 20.206 768.998 257.449 864.418 550.101 864.418 C 842.753 864.418 1079.99 768.998 1079.99 651.293 C 1079.99 533.585 842.753 438.165 550.101 438.165 Z" fill="url(#paint11_linear_5_2)"></path>
  <path fill="#FFE1B7"></path>
  <path d="M 51.036 338.273 L 55.733 384.632 C 57.467 401.734 70.672 415.433 87.702 417.79 L 102.072 419.776 L 87.746 421.759 C 70.698 424.117 57.48 437.846 55.771 454.972 L 51.036 502.428 L 46.299 454.972 C 44.589 437.846 31.372 424.117 14.323 421.759 L 0 419.776 L 14.368 417.79 C 31.398 415.433 44.604 401.734 46.338 384.632 L 51.036 338.273 Z" fill="#FBAD41"></path>
  <path d="M 550.099 428.652 L 550.139 428.652 C 320.658 428.69 134.678 498.848 134.678 585.42 L 134.678 586.876 C 145.032 596.559 157.709 605.812 172.434 614.511 C 178.338 617.977 184.559 621.402 191.056 624.71 C 204.124 631.324 218.415 637.542 233.848 643.369 C 256.996 652.069 282.626 659.867 310.342 666.48 C 314.948 667.583 319.634 668.645 324.357 669.708 C 333.807 671.795 343.491 673.762 353.412 675.574 C 358.372 676.478 363.373 677.385 368.411 678.211 C 383.568 680.733 399.118 682.975 415.103 684.865 C 425.732 686.125 436.559 687.265 447.544 688.211 C 463.999 689.667 480.81 690.771 497.936 691.517 C 515.06 692.266 532.463 692.661 550.099 692.661 C 738.245 692.661 899.183 648.881 965.441 586.835 C 965.441 586.363 965.521 585.932 965.521 585.379 C 965.521 498.807 779.542 428.652 550.099 428.652 Z" fill="url(#paint12_linear_5_2)"></path>
  <path d="M 550.092 667.458 C 746.517 667.458 905.751 619.64 905.751 560.652 C 905.751 501.662 746.517 453.843 550.092 453.843 C 353.668 453.843 194.434 501.662 194.434 560.652 C 194.434 619.64 353.668 667.458 550.092 667.458 Z" fill="url(#paint13_linear_5_2)"></path>
  <path d="M 862.524 597.742 L 879.683 614.902 L 896.845 597.742 L 879.683 580.581 L 862.524 597.742 Z" fill="#FFF8EE"></path>
  <path d="M 813.168 590.232 L 815.637 614.592 C 817.614 634.103 832.681 649.729 852.106 652.417" fill="white"></path>
  <path d="M 602.873 441.985 C 597.12 465.356 586.576 479.534 571.279 484.531 C 585.502 443.938 573.611 400.058 535.639 352.938 C 534.82 401.619 523.128 437.062 500.545 459.311 C 469.478 489.877 469.811 524.38 501.527 562.807 L 595.953 563.49 C 621.247 525.987 623.564 485.485 602.873 441.985 Z" fill="#FFE9CB"></path>
  <path d="M 680.38 316.207 C 616.96 243.186 566.809 228.644 566.34 65.076 C 489.776 138.78 463.813 227.978 488.487 332.655 C 465.857 326.142 451.605 308.603 445.715 280.022 C 350.986 398.164 369.465 492.375 501.105 562.657 C 501.194 562.702 501.286 562.762 501.378 562.807 L 501.514 562.807 C 469.797 524.38 469.463 489.891 500.528 459.311 C 523.098 437.076 534.806 401.617 535.623 352.936 C 573.596 400.058 585.487 443.922 571.262 484.529 C 586.576 479.531 597.103 465.354 602.86 441.983 C 623.534 485.485 621.232 525.987 595.937 563.49 L 596.104 563.49 C 596.345 563.368 596.573 563.232 596.815 563.11 C 708.84 504.342 748.644 403.573 680.38 316.207 Z" fill="url(#paint14_linear_5_2)"></path>
  <path fill-rule="evenodd" clip-rule="evenodd" d="M 967.568 334.374 C 988.709 334.374 1005.85 317.238 1005.85 296.097 C 1005.85 274.957 988.709 257.819 967.568 257.819 C 946.428 257.819 929.292 274.957 929.292 296.097 C 929.292 300.151 929.921 304.061 931.09 307.727 L 677.94 564.032 L 724.135 564.032 L 953.573 331.735 C 957.91 333.439 962.629 334.374 967.568 334.374 Z" fill="url(#paint15_linear_5_2)"></path>
  <defs>
    <linearGradient id="paint8_linear_5_2" x1="544.301" y1="683.783" x2="484.527" y2="579.698" gradientUnits="userSpaceOnUse" gradientTransform="matrix(2.347656, 0, 0, 2.347656, -727.73407, -563.677956)">
      <stop offset="0.0071" stop-color="#CE2F55"></stop>
      <stop offset="0.3515" stop-color="#FF6633"></stop>
      <stop offset="1" stop-color="#F6821F"></stop>
    </linearGradient>
    <linearGradient id="paint9_linear_5_2" x1="318.593" y1="516.834" x2="344.934" y2="578.629" gradientUnits="userSpaceOnUse" gradientTransform="matrix(2.347656, 0, 0, 2.347656, -727.73407, -563.677956)">
      <stop stop-color="#FBAD41"></stop>
      <stop offset="1" stop-color="#FBAD41" stop-opacity="0"></stop>
    </linearGradient>
    <linearGradient id="paint10_linear_5_2" x1="544.3" y1="475.44" x2="544.3" y2="652.316" gradientUnits="userSpaceOnUse" gradientTransform="matrix(2.347656, 0, 0, 2.347656, -727.73407, -563.677956)">
      <stop stop-color="#F6821F"></stop>
      <stop offset="0.495" stop-color="#FF6633"></stop>
      <stop offset="1" stop-color="#CE2F55"></stop>
    </linearGradient>
    <linearGradient id="paint11_linear_5_2" x1="770.015" y1="518.185" x2="745.466" y2="473.373" gradientUnits="userSpaceOnUse" gradientTransform="matrix(2.347656, 0, 0, 2.347656, -727.73407, -563.677956)">
      <stop stop-color="#FBAD41"></stop>
      <stop offset="1" stop-color="#FBAD41" stop-opacity="0"></stop>
    </linearGradient>
    <linearGradient id="paint12_linear_5_2" x1="381.874" y1="478.916" x2="837.584" y2="478.916" gradientUnits="userSpaceOnUse" gradientTransform="matrix(2.347656, 0, 0, 2.347656, -727.73407, -563.677956)">
      <stop stop-color="#F58220"></stop>
      <stop offset="0.345" stop-color="#F58220"></stop>
      <stop offset="1" stop-color="#FCD190"></stop>
    </linearGradient>
    <linearGradient id="paint13_linear_5_2" x1="-299.598" y1="449.337" x2="1106.75" y2="563.892" gradientUnits="userSpaceOnUse" gradientTransform="matrix(2.347656, 0, 0, 2.347656, -727.73407, -563.677956)">
      <stop stop-color="#0F006B"></stop>
      <stop offset="0.0833" stop-color="#281A81"></stop>
      <stop offset="0.1667" stop-color="#5D0C83"></stop>
      <stop offset="0.25" stop-color="#911475"></stop>
      <stop offset="0.3333" stop-color="#CE2F55"></stop>
      <stop offset="0.4167" stop-color="#FF6633"></stop>
      <stop offset="0.5" stop-color="#F6821F"></stop>
      <stop offset="0.5833" stop-color="#FBAD41"></stop>
      <stop offset="0.6667" stop-color="#FFCD89"></stop>
      <stop offset="0.75" stop-color="#FFE9CB"></stop>
      <stop offset="0.8333" stop-color="#FFF7EC"></stop>
      <stop offset="0.9167" stop-color="#FFF8EE"></stop>
      <stop offset="1" stop-color="white"></stop>
    </linearGradient>
    <linearGradient id="paint14_linear_5_2" x1="544.305" y1="267.82" x2="544.305" y2="480.123" gradientUnits="userSpaceOnUse" gradientTransform="matrix(2.347656, 0, 0, 2.347656, -727.73407, -563.677956)">
      <stop stop-color="#FFF8EE"></stop>
      <stop offset="0.2688" stop-color="#FFE9CB"></stop>
      <stop offset="1" stop-color="#FECD8A"></stop>
    </linearGradient>
    <linearGradient id="paint15_linear_5_2" x1="711.8" y1="375.863" x2="596.751" y2="492.344" gradientUnits="userSpaceOnUse" gradientTransform="matrix(2.347656, 0, 0, 2.347656, -727.73407, -563.677956)">
      <stop stop-color="#CE2F55"></stop>
      <stop offset="0.475" stop-color="#FF6633"></stop>
      <stop offset="1" stop-color="#F6821F"></stop>
    </linearGradient>
  </defs>
</svg>
